# xmcd
#
# Track frame offsets:
# 150
# 55521
# 145306
# 195243
# 250913
#
# Disc length: 4136 seconds
#
#
# Revision: 0
# Processed by: cddbd v1.5.2PL0 Copyright (c) Steve Scherf et al.
# Submitted via: FreeRIP 2.951 
#
DISCID=3b102605
DTITLE=Josef Klicka - 5 koncertnich fantasii
DYEAR=2006
DGENRE=
TTITLE0=Fantasie na symfonickou basen Vysehrad od B. Smetany
TTITLE1=Koncertni fantasie na choral Svaty Vaclave
TTITLE2=Koncertni fantasie c moll
TTITLE3=Koncertni fantasie g moll
TTITLE4=Koncertni fantasie fis moll
EXTD=
EXTT0=
EXTT1=
EXTT2=
EXTT3=
EXTT4=
PLAYORDER=
